# xmcd
#
# Track frame offsets:
# 150
# 18101
# 34194
# 50787
# 69133
# 85269
# 101366
# 117796
# 135890
# 156448
# 174728
#
# Disc length: 2526 seconds
#
# Revision: 2
# Processed by: cddbd v1.5.2PL0 Copyright (c) Steve Scherf et al.
# Submitted via: Axialis_AX_CDPlayer 2.6
#
DISCID=8309dc0b
DTITLE=Zucchero - Fly
DYEAR=2006
DGENRE=Blues
TTITLE0=Bacco Perbacco
TTITLE1=Un Kilo
TTITLE2=Occhi
TTITLE3=Quanti Anni Ho
TTITLE4=Cuba Libre
TTITLE5=E' Delicato
TTITLE6=L' Amore E' Nell' Aria
TTITLE7=Pronto
TTITLE8=Let It Shine
TTITLE9=Troppa Fedelta'
TTITLE10=E Di Grazia Plena
EXTD=
EXTT0=
EXTT1=
EXTT2=
EXTT3=
EXTT4=
EXTT5=
EXTT6=
EXTT7=
EXTT8=
EXTT9=
EXTT10=
PLAYORDER=
